# xmcd CD database file
#
# Track frame offsets:
#	150
#	11232
#	21042
#	32225
#	43757
#	54737
#	66507
#	76352
#	86015
#	95470
#	108550
#	117265
#	129080
#	140182
#	150407
#	160835
#	170267
#	179030
#	188570
#	199532
#	208732
#	219402
#	231042
#	241665
#	250767
#	261487
#	271150
#	280815
#	290250
#	299172
#	308797
#	318395
#	328142
#	338622
#	349110
#
# Disc length: 4774 seconds
#
# Revision: 0
# Processed by: cddbd v1.5.2PL0 Copyright (c) Steve Scherf et al.
# Submitted via: CDex 1.51
#
DISCID=0d12a423
DTITLE=Slim Whitman - I'm A Lonely Wanderer CD2
DYEAR=1963
DGENRE=Country
TTITLE0=The Wayward Wind
TTITLE1=We Live In Two Different Worlds
TTITLE2=I Forgot More Than You'll Ever Know
TTITLE3=I'm Walking Behind You
TTITLE4=There's A Goldmine In The Sky
TTITLE5=Send Me The Pillow That You Dream On
TTITLE6=Anytime
TTITLE7=You You You
TTITLE8=Love Letters In The Sand
TTITLE9=Tammy
TTITLE10=(I'm A) Lonely Wanderer
TTITLE11=Backward, Turn Backward
TTITLE12=So Long Mary
TTITLE13=Nobody's Darling But Mine
TTITLE14=Have I Told You Lately That I Love You
TTITLE15=Broken-Down-Merry-Go-Round
TTITLE16=There's A New Moon Over My Shoulder
TTITLE17=Somebody Loves You
TTITLE18=What'll I Do
TTITLE19=Never
TTITLE20=Suppose I Never Had Met You
TTITLE21=Tell Me Pretty Words
TTITLE22=They Didn't Believe Me
TTITLE23=Ages And Ages Ago
TTITLE24=Chime Bells
TTITLE25=Would You String Along With Me
TTITLE26=Hi Lili Hi Lo
TTITLE27=Cowboy's Heaven
TTITLE28=Weary And Blue
TTITLE29=Sioux City Sue
TTITLE30=Mocking Bird Hill
TTITLE31=Gonna Find Me A Bluebird
TTITLE32=Swiss Lullaby
TTITLE33=Over The Hill
TTITLE34=My Little Lady
EXTD=YEAR: 1963
EXTT0=
EXTT1=
EXTT2=
EXTT3=
EXTT4=
EXTT5=
EXTT6=
EXTT7=
EXTT8=
EXTT9=
EXTT10=
EXTT11=
EXTT12=
EXTT13=
EXTT14=
EXTT15=
EXTT16=
EXTT17=
EXTT18=
EXTT19=
EXTT20=
EXTT21=
EXTT22=
EXTT23=
EXTT24=
EXTT25=
EXTT26=
EXTT27=
EXTT28=
EXTT29=
EXTT30=
EXTT31=
EXTT32=
EXTT33=
EXTT34=
PLAYORDER=
